<svg xmlns="http://www.w3.org/2000/svg" width="1200" height="630" viewBox="0 0 1200 630">
  <defs>
    <style>
      .serif { font-family: Georgia, 'Times New Roman', serif; }
      .sans { font-family: Arial, Helvetica, sans-serif; }
      .ink { fill: #141413; }
      .muted { fill: #81796f; }
      .accent { fill: #df744f; }
      .dark { fill: #9a442f; }
      .hl { fill: #f2d0c4; }
      .grid { stroke: rgba(20,20,19,0.055); stroke-width: 1; }
    </style>
  </defs>
  <rect width="1200" height="630" fill="#faf9f5"/>
  <g>
    <path class="grid" d="M72 0v630M144 0v630M216 0v630M288 0v630M360 0v630M432 0v630M504 0v630M576 0v630M648 0v630M720 0v630M792 0v630M864 0v630M936 0v630M1008 0v630M1080 0v630"/>
  </g>
  <g transform="translate(76 64)">
    <path fill="#df744f" d="M17.8 0h1.4c1.6 0 2.8 1.3 2.7 2.9l-1.2 15.7 7.9-13.7c.8-1.4 2.5-1.8 3.8-.9l1.2.8c1.3.9 1.5 2.7.5 3.9L24 20.9l14.4-6.6c1.4-.6 3.1.1 3.6 1.6l.5 1.3c.5 1.5-.4 3.1-1.9 3.4L25.2 24l15.4 3.7c1.5.4 2.4 1.9 1.9 3.4l-.5 1.3c-.5 1.5-2.2 2.2-3.6 1.6L24 27.5l10.1 12.2c1 1.2.7 3-.5 3.9l-1.2.8c-1.3.9-3 .5-3.8-.9l-7.9-13.7 1.2 15.7c.1 1.6-1.1 2.9-2.7 2.9h-1.4c-1.6 0-2.8-1.3-2.7-2.9l1.2-15.7-7.9 13.7c-.8 1.4-2.5 1.8-3.8.9l-1.2-.8c-1.3-.9-1.5-2.7-.5-3.9L13 27.5-1.4 34c-1.4.6-3.1-.1-3.6-1.6l-.5-1.3c-.5-1.5.4-3.1 1.9-3.4L11.8 24-3.6 20.4c-1.5-.4-2.4-1.9-1.9-3.4l.5-1.3c.5-1.5 2.2-2.2 3.6-1.6L13 20.9 2.9 8.7c-1-1.2-.7-3 .5-3.9l1.2-.8c1.3-.9 3-.5 3.8.9l7.9 13.7-1.2-15.7C15 1.3 16.2 0 17.8 0Z" transform="translate(6 0)"/>
    <text class="sans ink" x="64" y="29" font-size="26" font-weight="700">Codex Wins</text>
  </g>
  <g transform="translate(76 192)">
    <rect class="hl" x="0" y="-36" width="514" height="74"/>
    <text class="serif ink" x="0" y="20" font-size="78" font-weight="500">Everything that</text>
    <text class="serif ink" x="0" y="96" font-size="78" font-weight="500">made </text>
    <text class="serif accent" x="205" y="96" font-size="78" font-weight="500">Codex</text>
    <text class="serif ink" x="0" y="172" font-size="78" font-weight="500">better than Claude.</text>
    <text class="serif muted" x="0" y="238" font-size="27">A sourced April 2026 timeline for why Codex is the</text>
    <text class="serif muted" x="0" y="276" font-size="27">better coding agent to bet on right now.</text>
  </g>
  <g transform="translate(806 246)">
    <rect class="accent" x="0" y="66" width="32" height="32"/>
    <rect class="accent" x="32" y="50" width="32" height="48"/>
    <rect class="accent" x="64" y="34" width="32" height="64"/>
    <rect class="accent" x="96" y="18" width="32" height="80"/>
    <rect class="accent" x="128" y="18" width="32" height="80"/>
    <rect fill="#ee8b62" x="160" y="18" width="32" height="80"/>
    <rect class="accent" x="192" y="18" width="32" height="80"/>
    <rect class="accent" x="224" y="34" width="32" height="64"/>
    <rect fill="#ba6348" x="256" y="50" width="32" height="48"/>
    <rect class="accent" x="288" y="66" width="32" height="32"/>
    <rect class="ink" x="116" y="58" width="24" height="42"/>
    <rect class="ink" x="164" y="58" width="24" height="42"/>
    <rect fill="#ba6348" x="64" y="34" width="32" height="16" opacity="0.55"/>
    <rect fill="#ba6348" x="256" y="50" width="32" height="48" opacity="0.8"/>
  </g>
  <g class="sans" transform="translate(826 408)" font-size="20" font-weight="800" letter-spacing="1.2">
    <text class="dark" x="0" y="0">4M+</text>
    <text class="muted" x="54" y="0">WEEKLY USERS</text>
    <text class="muted" x="54" y="34">400K CONTEXT</text>
    <text class="muted" x="54" y="68">10K NVIDIA ROLLOUT</text>
  </g>
</svg>
